<svg viewBox="-0.288 -24.675 141.732 141.732" xml:space="preserve" xmlns="http://www.w3.org/2000/svg"><path d="M37.164 60.964C17.418 61.378 1.395 74.75 0 91.622h18.693l.009-.104c.9-10.901 6.48-21.019 15.712-28.487a50.076 50.076 0 0 1 2.75-2.067m7.456-33.717c0-2.408.255-4.747.731-6.98-2.211-1.199-4.662-1.872-7.244-1.872-9.761 0-17.673 9.526-17.673 21.279 0 11.395 7.437 20.695 16.78 21.253 4.202-2.928 8.886-5.22 13.868-6.815a21.717 21.717 0 0 0 2.681-4.568c-5.56-5.18-9.143-13.248-9.143-22.297m48.375-.253C92.995 12.085 82.958 0 70.578 0 58.197 0 48.161 12.085 48.161 26.994c0 13.36 8.063 24.457 18.651 26.61-23.855 1.586-42.865 18.11-44.574 38.776h96.68c-1.71-20.666-20.719-37.19-44.576-38.775 10.588-2.154 18.653-13.248 18.653-26.611m27.725 13.442c0-11.753-7.912-21.28-17.674-21.28-2.583 0-5.031.676-7.243 1.872.479 2.233.729 4.573.729 6.98 0 9.05-3.582 17.117-9.144 22.293a21.806 21.806 0 0 0 2.678 4.571c4.984 1.596 9.667 3.888 13.868 6.813 9.351-.555 16.786-9.856 16.786-21.249m20.436 51.947c-1.396-16.872-17.418-30.243-37.164-30.657.94.657 1.857 1.346 2.749 2.066 9.23 7.469 14.812 17.586 15.713 28.484l.009.104 18.693.003z" fill="#ffffff" class="fill-000000"></path></svg>