<svg viewBox="0 0 52 52" xml:space="preserve" xmlns="http://www.w3.org/2000/svg"><path d="M47.982 11.67h-3.05a.986.986 0 0 0 .069-.34v-2a1 1 0 1 0-2 0v2c0 .12.03.233.068.34H11.932a.986.986 0 0 0 .069-.34v-2a1 1 0 1 0-2 0v2c0 .12.03.233.068.34H8.552c-1.91 0-3.64 1.07-4.42 2.73l-1.66 3.56a4.107 4.107 0 0 0-.12 3.26c.42 1.12 1.28 2 2.4 2.48l.24.11c.71.3 1.08 1.02.88 1.7l-3.71 12.85c-.36 1.22-.12 2.52.66 3.55.82 1.1 2.15 1.76 3.56 1.76h5.27c1.96 0 3.69-1.27 4.21-3.07l2.873-9.932h2.196c4.45 0 8.07-3.62 8.07-8.07v-.188h16.64c2.4 0 4.36-1.87 4.36-4.17v-4.61c0-1.08-.91-1.96-2.02-1.96zm-27.05 16.998h-1.619l1.339-4.628c.086-.295.24-.557.436-.785l2.163 2.163a.997.997 0 0 0 1.414 0 1 1 0 0 0 0-1.414l-1.336-1.336H27a6.077 6.077 0 0 1-6.07 6z" fill="#ffffff" class="fill-000000"></path></svg>