<svg viewBox="0 0 512 512" xml:space="preserve" xmlns="http://www.w3.org/2000/svg"><path d="M441.7 392.1 281 484.9c-15.5 8.9-34.5 8.9-50 0L70.3 392.1c-15.5-8.9-25-25.4-25-43.3V163.2c0-17.9 9.5-34.4 25-43.3L231 27.1c15.5-8.9 34.5-8.9 50 0l160.7 92.8c15.5 8.9 25 25.4 25 43.3v185.6c0 17.8-9.5 34.4-25 43.3z" fill="#ffffff" class="fill-000000"></path><g fill="#FFFFFF" class="fill-ffffff"><path d="M290.1 310.6c1.4 1.2.8 2.8.8 4.2v57.9c0 .4.1.8.1 1.2h-69.2c.3-11.4.3-22.8 0-34.1 2.1.1 1.1 1.7 1.1 2.5.1 9.1.1 18.3 0 27.4-.1 2.6.8 3.3 3.3 3.3 20.1-.1 40.2-.1 60.3 0 2.9 0 3.3-1 3.3-3.5-.1-16.5-.1-33-.1-49.6.3-3.1.4-6.2.4-9.3z"></path><path d="M290.1 310.6c-.1 3.1-.1 6.3-.1 9.4 0 16.5-.1 33 .1 49.6 0 2.5-.5 3.6-3.3 3.5-20.1-.1-40.2-.1-60.3 0-2.5 0-3.4-.7-3.3-3.3.1-9.1.1-18.3 0-27.4 0-.8 1-2.5-1.1-2.5-.5 0-.8.1-1.3.1-.8-.4-1.6-.3-2.2.6-8.1.8-16.3 1.5-24.3-.5-14.2-3.6-24.4-12-30.7-25.4-4-8.7-9.4-16.8-15.6-24.3-2-2.4-5.1-3.3-7.2-5.6-.8-.9-2.1-1.6-1.7-2.9.4-1.5 2-1.4 3.3-1.6 13.1-1.1 22.3 5.1 28.8 15.8 5.9 9.8 13.7 17 24.9 20 8 2.1 15.9 1.6 23.8-.8 1.8-.6 2.8-1.4 3-3.6.6-8.1 2.3-15.9 7.9-22.8-2.2-.4-3.9-.8-5.6-1-13.8-2.1-26.7-6.9-37.9-15.4-12.5-9.5-20.2-22.3-22.7-37.9-2.1-13.6-1.3-27.4.5-41 1.4-10.5 4.3-20.5 11.9-28.3 2.7-2.7 2.9-5 1.7-8.4-4-11.6-2.9-23.3.7-34.9.7-2.2 1.6-2.8 4-2.2 8.8 2.2 15.6 7.3 21.7 13.6 3 3 5.6 6.4 8 9.8.7 1 1.2 1.5 2.5.5 4.7-3.7 10.4-4.9 16.1-5.7 16.5-2.4 33-2.4 49.4-.1 5.5.8 11 1.8 15.6 5.2 2.2 1.6 3 .7 4.2-1 4.4-6.4 9.7-11.9 16-16.4 4-2.9 8.4-4.8 13.3-6 2.1-.5 2.9.1 3.6 2 4.4 12.5 5.1 25.1.1 37.6-.6 1.6-1 2.7.5 4 8 7.6 11.8 17.2 13.4 27.9 1.9 12.9 3 25.9 1.5 39-2.5 22.1-13.7 38.1-33.2 48.6-.7-.1-1.3.1-1.6.8-.5.3-1 .5-1.5.7-1.7.1-3.1.8-4.3 1.9-.5.2-1.1.3-1.6.5-.8-.2-1.3.1-1.6.8-.3.1-.7.2-1 .3-2.6.4-5.2.7-7.4 2.3-.3.1-.7.1-1 .2-1.9-.1-3.8.1-5.4 1.2l-4.2.6c-1.1.1-2.4-.1-3.3.3-1 .5-.6 1.1.3 1.4l.1.1c.1.9.5 1.6 1.4 1.8.5 1 1 2.1 1.6 3.1.1 1.4.4 2.7 1.6 3.6.1.6.3 1.1.4 1.7.3 1.8.3 3.7 1.4 5.3.1.4.1.8.2 1.1-.4.8-.2 1.5.4 2.2-.5.5-.5 1.2-.5 1.9z"></path><path d="M296.8 286.1c2.2-1.6 4.8-1.9 7.4-2.3-2.4 1-4.6 2.6-7.4 2.3zM290.3 287.6c1.6-1.2 3.5-1.2 5.4-1.2-1.5 1.2-3.4 1.4-5.4 1.2zM289.4 305.4c-1.1-1.6-1.1-3.5-1.4-5.3 1.4 1.5 1.9 3.3 1.4 5.3zM308.5 282.1c1.2-1.1 2.6-1.9 4.3-1.9-1.1 1.3-2.5 2.1-4.3 1.9zM283.1 289.9c-1-.3-1.4-.9-.3-1.4 1-.4 2.2-.3 3.3-.3-.7 1.1-2.6.1-3 1.7zM287.6 298.4c-1.2-.9-1.4-2.2-1.6-3.6 1.4.9 1.5 2.2 1.6 3.6zM290 308.7c-.6-.7-.7-1.3-.4-2.2.8.6 1 1.3.4 2.2zM218.5 340.5c.5-.9 1.2-.9 2.2-.6-.6.6-1.3 1-2.2.6zM284.6 291.7c-.9-.3-1.3-.9-1.4-1.8 1 .2 1.4.9 1.4 1.8zM314.4 279.5c.3-.7.9-.9 1.6-.8-.2.8-.7 1.3-1.6.8zM305.3 283.5c.3-.7.8-1 1.6-.8-.3.8-.7 1.2-1.6.8z"></path></g></svg>